<svg height="512pt" viewBox="0 -14 512 512" width="512pt" xmlns="http://www.w3.org/2000/svg" xmlns:xlink="http://www.w3.org/1999/xlink"><linearGradient id="a"><stop offset="0" stop-color="#3b395f"/><stop offset=".0633" stop-color="#37355a"/><stop offset=".4033" stop-color="#232543"/><stop offset=".7232" stop-color="#171b35"/><stop offset="1" stop-color="#131830"/></linearGradient><linearGradient id="b" gradientUnits="userSpaceOnUse" x1="139.2882543602" x2="587.2854350942" xlink:href="#a" y1="110.5828172516" y2="558.5800983778"/><linearGradient id="c"><stop offset="0" stop-color="#3b395f" stop-opacity="0"/><stop offset=".0633" stop-color="#37355a" stop-opacity=".062745"/><stop offset=".4033" stop-color="#232543" stop-opacity=".403922"/><stop offset=".7232" stop-color="#171b35" stop-opacity=".721569"/><stop offset="1" stop-color="#131830"/></linearGradient><linearGradient id="d" gradientUnits="userSpaceOnUse" x1="81.3268176902" x2="59.3916239512" xlink:href="#c" y1="96.603906147" y2="151.577168984"/><linearGradient id="e" gradientTransform="matrix(-1.003922 0 0 -1.003922 512 5838.419325)" gradientUnits="userSpaceOnUse" x1="160.1899" x2="505.5172" xlink:href="#a" y1="5494.5762" y2="5839.9038"/><radialGradient id="f" cx="221.7163744844" cy="151.4445508878" gradientUnits="userSpaceOnUse" r="314.0531043564"><stop offset="0" stop-color="#fffcf8"/><stop offset=".4554" stop-color="#fdfbf7"/><stop offset=".6194" stop-color="#f6f5f5"/><stop offset=".7363" stop-color="#ebedf1"/><stop offset=".8309" stop-color="#dae0eb"/><stop offset=".9118" stop-color="#c4cfe4"/><stop offset=".9822" stop-color="#a9bbdb"/><stop offset="1" stop-color="#a1b5d8"/></radialGradient><linearGradient id="g"><stop offset="0" stop-color="#ff6e3a"/><stop offset=".1596" stop-color="#ff6440"/><stop offset=".4266" stop-color="#ff4b52"/><stop offset=".7662" stop-color="#ff216e"/><stop offset="1" stop-color="#ff0084"/></linearGradient><linearGradient id="h" gradientUnits="userSpaceOnUse" x1="263.477321056" x2="282.7660760108" xlink:href="#g" y1="82.5195832324" y2="82.5195832324"/><linearGradient id="i" gradientUnits="userSpaceOnUse" x1="263.477321056" x2="282.7660760108" xlink:href="#g" y1="400.5937967676" y2="400.5937967676"/><linearGradient id="j" gradientTransform="matrix(0 1.003922 -1.003922 0 3182.431373 2655.987953)" gradientUnits="userSpaceOnUse" x1="-2411.9385" x2="-2392.7251" xlink:href="#g" y1="2742.1978" y2="2742.1978"/><linearGradient id="k" gradientTransform="matrix(0 1.003922 -1.003922 0 3182.431373 2655.987953)" gradientUnits="userSpaceOnUse" x1="-2411.9385" x2="-2392.7251" xlink:href="#g" y1="3059.0293" y2="3059.0293"/><linearGradient id="l" gradientUnits="userSpaceOnUse" x1="358.4655093222" x2="19.3381479172" y1="252.2606067562" y2="251.313305957"><stop offset="0" stop-color="#a1b5d8" stop-opacity="0"/><stop offset=".0343" stop-color="#9fb3d5" stop-opacity=".035294"/><stop offset=".4515" stop-color="#8898af" stop-opacity=".45098"/><stop offset=".788" stop-color="#798898" stop-opacity=".788235"/><stop offset="1" stop-color="#748290"/></linearGradient><linearGradient id="m" gradientUnits="userSpaceOnUse" x1="235.8165593666" x2="363.327403176" y1="147.72512027" y2="275.2359640794"><stop offset="0" stop-color="#ffd459"/><stop offset=".2296" stop-color="#ffd355"/><stop offset=".4362" stop-color="#ffcf4a"/><stop offset=".634" stop-color="#ffc838"/><stop offset=".825" stop-color="#ffbf1f"/><stop offset="1" stop-color="#ffb400"/></linearGradient><linearGradient id="n" gradientUnits="userSpaceOnUse" x1="253.8655710436" x2="300.2969635436" xlink:href="#g" y1="224.9792271906" y2="271.4106196906"/><linearGradient id="o" gradientUnits="userSpaceOnUse" x1="219.8828113436" x2="194.607769895" xlink:href="#c" y1="27.749915777" y2="87.6878740806"/><path d="m270.445312 0c-2.539062 0-5.066406.0507812-7.585937.128906v-.128906h-192.8125c-8.773437 0-15.886719 7.113281-15.886719 15.886719 0 8.773437 7.113282 15.886719 15.886719 15.886719h30.339844c14.910156 0 21.851562 18.453124 10.65625 28.300781-.167969.148437-.335938.296875-.507813.445312-9.082031 8.035157-20.820312 12.417969-32.949218 12.417969h-61.699219c-8.773438 0-15.886719 7.109375-15.886719 15.886719 0 8.773437 7.113281 15.886719 15.886719 15.886719h37.289062c7.730469 0 12.535157 8.386718 8.628907 15.054687-.039063.070313-.078126.140625-.117188.207031-1.792969 3.070313-5.078125 4.957032-8.632812 4.957032h-12.613282c-8.777344 0-15.886718 7.113281-15.886718 15.886718 0 8.773438 7.109374 15.886719 15.886718 15.886719 1.835938 0 3.101563 1.824219 2.480469 3.554687-9.464844 26.492188-14.453125 55.109376-14.011719 84.953126 1.964844 132.433593 109.085938 237.902343 241.53125 237.902343 133.410156 0 241.558594-108.148437 241.558594-241.558593 0-133.40625-108.148438-241.554688-241.554688-241.554688zm0 0" fill="url(#b)"/><path d="m163.746094 72.574219h-80.246094c-1.953125.230469-3.925781.363281-5.914062.363281h-61.699219c-8.773438 0-15.886719 7.109375-15.886719 15.886719 0 8.773437 7.113281 15.886719 15.886719 15.886719h147.859375zm0 0" fill="url(#d)"/><path d="m486.625 241.554688c0 119.394531-96.789062 216.183593-216.179688 216.183593-119.394531 0-216.183593-96.789062-216.183593-216.183593 0-119.390626 96.789062-216.179688 216.183593-216.179688 119.390626 0 216.179688 96.789062 216.179688 216.179688zm0 0" fill="url(#e)"/><path d="m471.101562 241.554688c0 110.824218-89.835937 200.660156-200.65625 200.660156-110.824218 0-200.660156-89.835938-200.660156-200.660156 0-110.820313 89.835938-200.65625 200.660156-200.65625 110.820313 0 200.65625 89.835937 200.65625 200.65625zm0 0" fill="url(#f)"/><path d="m270.445312 106.207031c-7.296874 0-13.210937-5.914062-13.210937-13.210937v-20.953125c0-7.296875 5.914063-13.210938 13.210937-13.210938 7.292969 0 13.207032 5.914063 13.207032 13.210938v20.953125c0 7.296875-5.914063 13.210937-13.207032 13.210937zm0 0" fill="url(#h)"/><path d="m270.445312 424.28125c-7.296874 0-13.210937-5.914062-13.210937-13.210938v-20.953124c0-7.296876 5.914063-13.210938 13.210937-13.210938 7.292969 0 13.207032 5.914062 13.207032 13.210938v20.953124c0 7.296876-5.914063 13.210938-13.207032 13.210938zm0 0" fill="url(#i)"/><path d="m405.792969 241.554688c0-7.292969 5.914062-13.207032 13.207031-13.207032h20.957031c7.296875 0 13.210938 5.914063 13.210938 13.207032 0 7.296874-5.914063 13.210937-13.210938 13.210937h-20.957031c-7.292969 0-13.207031-5.914063-13.207031-13.210937zm0 0" fill="url(#j)"/><path d="m87.71875 241.554688c0-7.292969 5.914062-13.207032 13.210938-13.207032h20.953124c7.296876 0 13.210938 5.914063 13.210938 13.207032 0 7.296874-5.914062 13.210937-13.210938 13.210937h-20.953124c-7.296876 0-13.210938-5.914063-13.210938-13.210937zm0 0" fill="url(#k)"/><path d="m276.835938 120.058594c-1.148438-2.375-3.574219-4.015625-6.390626-4.015625-3.925781 0-7.105468 3.179687-7.105468 7.101562v118.410157c0 1.886718.746094 3.691406 2.078125 5.027343l3.308593 3.304688 138.480469 138.484375c24.445313-22.78125 43.191407-51.589844 53.875-84.0625zm0 0" fill="url(#l)"/><path d="m328.699219 306.917969c-1.816407 0-3.632813-.691407-5.023438-2.082031l-58.257812-58.253907c-1.332031-1.335937-2.078125-3.140625-2.078125-5.027343v-118.410157c0-3.921875 3.179687-7.101562 7.105468-7.101562 3.921876 0 7.105469 3.179687 7.105469 7.101562v115.46875l56.175781 56.175781c2.773438 2.773438 2.773438 7.273438 0 10.046876-1.390624 1.390624-3.207031 2.082031-5.027343 2.082031zm0 0" fill="url(#m)"/><path d="m289.863281 241.554688c0 10.726562-8.695312 19.421874-19.417969 19.421874-10.726562 0-19.421874-8.695312-19.421874-19.421874 0-10.722657 8.695312-19.417969 19.421874-19.417969 10.722657 0 19.417969 8.695312 19.417969 19.417969zm0 0" fill="url(#n)"/><path d="m270.445312 0c-2.539062 0-5.066406.0507812-7.585937.128906v-.128906h-192.8125c-8.773437 0-15.886719 7.113281-15.886719 15.886719 0 8.773437 7.113282 15.886719 15.886719 15.886719h320.222656c-35.3125-20.214844-76.21875-31.773438-119.824219-31.773438zm0 0" fill="url(#o)"/></svg>